Normalized EMG Linear Envelopes
nRows=59
nColumns=17

endheader
time	        VM	        VL	        RF	       GRA	        TA	   ADDLONG	   SEMIMEM	      BFLH	        GM	        GL	       TFL	   GLUTMAX	   GLUTMED	      PIRI	    OBTINT	        QF	
1.4925	  0.099566	  0.122903	  0.638536	  0.180213	  0.301029	  0.093869	  0.026140	  0.019444	  0.007862	  0.016723	  0.397391	  0.033958	  0.094942	  0.185333	  0.614288	  0.054869	
1.493	  0.099632	  0.122622	  0.637611	  0.180069	  0.300195	  0.093314	  0.025999	  0.019508	  0.007653	  0.016235	  0.395329	  0.034175	  0.095750	  0.185088	  0.614720	  0.055073	
1.4935	  0.099693	  0.122333	  0.636650	  0.179926	  0.299328	  0.092768	  0.025864	  0.019578	  0.007452	  0.015762	  0.393257	  0.034395	  0.096565	  0.184881	  0.615281	  0.055284	
1.494	  0.099748	  0.122036	  0.635654	  0.179783	  0.298428	  0.092229	  0.025736	  0.019652	  0.007261	  0.015305	  0.391175	  0.034616	  0.097387	  0.184713	  0.615974	  0.055500	
1.4945	  0.099798	  0.121733	  0.634622	  0.179639	  0.297495	  0.091699	  0.025615	  0.019731	  0.007080	  0.014862	  0.389083	  0.034839	  0.098215	  0.184581	  0.616803	  0.055721	
1.495	  0.099842	  0.121422	  0.633555	  0.179493	  0.296530	  0.091175	  0.025501	  0.019814	  0.006907	  0.014434	  0.386981	  0.035065	  0.099049	  0.184487	  0.617770	  0.055947	
1.4955	  0.099881	  0.121105	  0.632453	  0.179343	  0.295533	  0.090659	  0.025392	  0.019902	  0.006743	  0.014021	  0.384870	  0.035292	  0.099888	  0.184428	  0.618880	  0.056179	
1.496	  0.099914	  0.120780	  0.631314	  0.179190	  0.294504	  0.090150	  0.025290	  0.019994	  0.006587	  0.013621	  0.382750	  0.035521	  0.100732	  0.184403	  0.620134	  0.056414	
1.4965	  0.099942	  0.120449	  0.630140	  0.179032	  0.293444	  0.089648	  0.025193	  0.020089	  0.006440	  0.013236	  0.380621	  0.035752	  0.101580	  0.184413	  0.621535	  0.056654	
1.497	  0.099964	  0.120111	  0.628930	  0.178869	  0.292351	  0.089152	  0.025102	  0.020189	  0.006301	  0.012863	  0.378484	  0.035985	  0.102433	  0.184456	  0.623088	  0.056897	
1.4975	  0.099980	  0.119767	  0.627685	  0.178700	  0.291227	  0.088663	  0.025015	  0.020292	  0.006170	  0.012504	  0.376340	  0.036220	  0.103290	  0.184532	  0.624795	  0.057144	
1.498	  0.099991	  0.119415	  0.626405	  0.178524	  0.290071	  0.088179	  0.024934	  0.020399	  0.006048	  0.012158	  0.374190	  0.036456	  0.104150	  0.184639	  0.626658	  0.057394	
1.4985	  0.099996	  0.119057	  0.625091	  0.178342	  0.288882	  0.087702	  0.024857	  0.020508	  0.005933	  0.011825	  0.372033	  0.036694	  0.105013	  0.184776	  0.628681	  0.057646	
1.499	  0.099995	  0.118692	  0.623744	  0.178151	  0.287663	  0.087231	  0.024785	  0.020621	  0.005827	  0.011504	  0.369870	  0.036933	  0.105878	  0.184943	  0.630867	  0.057900	
1.4995	  0.099988	  0.118321	  0.622365	  0.177953	  0.286411	  0.086765	  0.024717	  0.020737	  0.005728	  0.011195	  0.367702	  0.037173	  0.106745	  0.185138	  0.633219	  0.058156	
1.5	  0.099975	  0.117943	  0.620954	  0.177745	  0.285129	  0.086305	  0.024653	  0.020855	  0.005637	  0.010897	  0.365529	  0.037415	  0.107614	  0.185361	  0.635740	  0.058414	
1.5005	  0.099957	  0.117559	  0.619511	  0.177529	  0.283817	  0.085851	  0.024593	  0.020976	  0.005554	  0.010612	  0.363352	  0.037658	  0.108484	  0.185611	  0.638432	  0.058672	
1.501	  0.099932	  0.117168	  0.618037	  0.177304	  0.282476	  0.085402	  0.024537	  0.021100	  0.005479	  0.010337	  0.361171	  0.037902	  0.109354	  0.185886	  0.641298	  0.058931	
1.5015	  0.099901	  0.116770	  0.616532	  0.177069	  0.281107	  0.084959	  0.024484	  0.021226	  0.005411	  0.010074	  0.358986	  0.038147	  0.110225	  0.186187	  0.644341	  0.059189	
1.502	  0.099865	  0.116367	  0.614996	  0.176824	  0.279711	  0.084522	  0.024435	  0.021353	  0.005351	  0.009821	  0.356799	  0.038393	  0.111095	  0.186511	  0.647563	  0.059447	
1.5025	  0.099823	  0.115956	  0.613429	  0.176570	  0.278289	  0.084090	  0.024389	  0.021483	  0.005299	  0.009579	  0.354609	  0.038640	  0.111965	  0.186858	  0.650965	  0.059704	
1.503	  0.099774	  0.115540	  0.611830	  0.176307	  0.276841	  0.083663	  0.024345	  0.021615	  0.005254	  0.009347	  0.352418	  0.038887	  0.112832	  0.187228	  0.654551	  0.059960	
1.5035	  0.099720	  0.115117	  0.610198	  0.176034	  0.275370	  0.083241	  0.024305	  0.021748	  0.005217	  0.009126	  0.350226	  0.039135	  0.113698	  0.187619	  0.658322	  0.060214	
1.504	  0.099659	  0.114688	  0.608534	  0.175752	  0.273875	  0.082825	  0.024267	  0.021883	  0.005187	  0.008914	  0.348033	  0.039384	  0.114561	  0.188031	  0.662280	  0.060465	
1.5045	  0.099593	  0.114252	  0.606837	  0.175461	  0.272359	  0.082413	  0.024232	  0.022019	  0.005165	  0.008712	  0.345841	  0.039632	  0.115420	  0.188463	  0.666425	  0.060713	
1.505	  0.099520	  0.113810	  0.605104	  0.175160	  0.270823	  0.082007	  0.024198	  0.022156	  0.005150	  0.008520	  0.343649	  0.039881	  0.116276	  0.188915	  0.670760	  0.060958	
1.5055	  0.099440	  0.113361	  0.603337	  0.174850	  0.269267	  0.081605	  0.024168	  0.022294	  0.005143	  0.008336	  0.341459	  0.040130	  0.117127	  0.189385	  0.675284	  0.061200	
1.506	  0.099354	  0.112905	  0.601533	  0.174531	  0.267695	  0.081209	  0.024139	  0.022433	  0.005144	  0.008162	  0.339270	  0.040378	  0.117973	  0.189873	  0.680000	  0.061437	
1.5065	  0.099260	  0.112442	  0.599692	  0.174203	  0.266107	  0.080817	  0.024111	  0.022573	  0.005153	  0.007997	  0.337083	  0.040627	  0.118812	  0.190379	  0.684908	  0.061670	
1.507	  0.099160	  0.111972	  0.597813	  0.173866	  0.264505	  0.080430	  0.024086	  0.022713	  0.005169	  0.007841	  0.334898	  0.040875	  0.119646	  0.190901	  0.690008	  0.061898	
1.5075	  0.099052	  0.111494	  0.595895	  0.173521	  0.262890	  0.080048	  0.024062	  0.022854	  0.005193	  0.007693	  0.332716	  0.041122	  0.120472	  0.191440	  0.695301	  0.062120	
1.508	  0.098936	  0.111008	  0.593936	  0.173167	  0.261264	  0.079670	  0.024039	  0.022995	  0.005225	  0.007553	  0.330536	  0.041369	  0.121290	  0.191994	  0.700786	  0.062338	
1.5085	  0.098813	  0.110515	  0.591936	  0.172804	  0.259628	  0.079296	  0.024018	  0.023136	  0.005264	  0.007422	  0.328359	  0.041615	  0.122100	  0.192564	  0.706464	  0.062550	
1.509	  0.098681	  0.110013	  0.589894	  0.172433	  0.257983	  0.078926	  0.023997	  0.023277	  0.005312	  0.007299	  0.326184	  0.041859	  0.122901	  0.193150	  0.712333	  0.062756	
1.5095	  0.098540	  0.109503	  0.587809	  0.172054	  0.256331	  0.078561	  0.023978	  0.023418	  0.005367	  0.007183	  0.324011	  0.042103	  0.123692	  0.193750	  0.718395	  0.062957	
1.51	  0.098391	  0.108984	  0.585680	  0.171666	  0.254673	  0.078199	  0.023959	  0.023558	  0.005430	  0.007075	  0.321840	  0.042345	  0.124473	  0.194365	  0.724647	  0.063151	
1.5105	  0.098232	  0.108456	  0.583509	  0.171270	  0.253009	  0.077841	  0.023940	  0.023698	  0.005502	  0.006974	  0.319670	  0.042585	  0.125243	  0.194994	  0.731089	  0.063339	
1.511	  0.098063	  0.107919	  0.581293	  0.170865	  0.251342	  0.077487	  0.023922	  0.023837	  0.005581	  0.006881	  0.317502	  0.042824	  0.126002	  0.195638	  0.737720	  0.063521	
1.5115	  0.097885	  0.107373	  0.579034	  0.170452	  0.249672	  0.077136	  0.023904	  0.023975	  0.005669	  0.006795	  0.315334	  0.043060	  0.126748	  0.196296	  0.744539	  0.063696	
1.512	  0.097695	  0.106816	  0.576733	  0.170030	  0.248000	  0.076788	  0.023886	  0.024112	  0.005765	  0.006716	  0.313166	  0.043295	  0.127482	  0.196969	  0.751543	  0.063864	
1.5125	  0.097496	  0.106250	  0.574388	  0.169600	  0.246327	  0.076444	  0.023868	  0.024248	  0.005869	  0.006643	  0.310998	  0.043527	  0.128201	  0.197656	  0.758731	  0.064026	
1.513	  0.097285	  0.105674	  0.572000	  0.169162	  0.244654	  0.076102	  0.023850	  0.024383	  0.005981	  0.006577	  0.308830	  0.043756	  0.128906	  0.198357	  0.766102	  0.064180	
1.5135	  0.097063	  0.105087	  0.569569	  0.168715	  0.242982	  0.075764	  0.023830	  0.024516	  0.006102	  0.006518	  0.306661	  0.043983	  0.129596	  0.199072	  0.773652	  0.064327	
1.514	  0.096830	  0.104490	  0.567096	  0.168260	  0.241312	  0.075428	  0.023810	  0.024647	  0.006231	  0.006465	  0.304491	  0.044206	  0.130270	  0.199801	  0.781379	  0.064466	
1.5145	  0.096586	  0.103882	  0.564580	  0.167796	  0.239645	  0.075095	  0.023789	  0.024776	  0.006369	  0.006419	  0.302319	  0.044426	  0.130928	  0.200543	  0.789280	  0.064599	
1.515	  0.096330	  0.103264	  0.562021	  0.167325	  0.237981	  0.074764	  0.023767	  0.024903	  0.006516	  0.006378	  0.300146	  0.044642	  0.131568	  0.201299	  0.797353	  0.064724	
1.5155	  0.096062	  0.102635	  0.559419	  0.166846	  0.236321	  0.074436	  0.023744	  0.025028	  0.006671	  0.006344	  0.297970	  0.044854	  0.132190	  0.202068	  0.805595	  0.064841	
1.516	  0.095782	  0.101996	  0.556775	  0.166359	  0.234666	  0.074109	  0.023720	  0.025151	  0.006835	  0.006315	  0.295791	  0.045063	  0.132794	  0.202849	  0.814001	  0.064951	
1.5165	  0.095489	  0.101347	  0.554089	  0.165866	  0.233017	  0.073784	  0.023694	  0.025272	  0.007008	  0.006292	  0.293608	  0.045267	  0.133379	  0.203643	  0.822569	  0.065053	
1.517	  0.095184	  0.100686	  0.551361	  0.165365	  0.231374	  0.073461	  0.023667	  0.025390	  0.007189	  0.006275	  0.291421	  0.045467	  0.133943	  0.204448	  0.831294	  0.065148	
1.5175	  0.094866	  0.100015	  0.548591	  0.164858	  0.229737	  0.073139	  0.023638	  0.025505	  0.007380	  0.006263	  0.289229	  0.045662	  0.134487	  0.205265	  0.840172	  0.065235	
1.518	  0.094535	  0.099333	  0.545782	  0.164345	  0.228108	  0.072819	  0.023607	  0.025617	  0.007580	  0.006256	  0.287031	  0.045852	  0.135010	  0.206093	  0.849199	  0.065314	
1.5185	  0.094191	  0.098640	  0.542932	  0.163826	  0.226487	  0.072499	  0.023574	  0.025727	  0.007789	  0.006255	  0.284826	  0.046038	  0.135511	  0.206932	  0.858371	  0.065385	
1.519	  0.093834	  0.097936	  0.540044	  0.163301	  0.224875	  0.072181	  0.023539	  0.025833	  0.008007	  0.006258	  0.282613	  0.046218	  0.135989	  0.207782	  0.867682	  0.065449	
1.5195	  0.093463	  0.097222	  0.537117	  0.162770	  0.223271	  0.071864	  0.023502	  0.025936	  0.008234	  0.006267	  0.280392	  0.046392	  0.136445	  0.208641	  0.877129	  0.065505	
1.52	  0.093078	  0.096496	  0.534152	  0.162234	  0.221677	  0.071548	  0.023462	  0.026036	  0.008471	  0.006280	  0.278162	  0.046561	  0.136876	  0.209510	  0.886704	  0.065553	
1.5205	  0.092680	  0.095760	  0.531149	  0.161692	  0.220092	  0.071232	  0.023420	  0.026132	  0.008717	  0.006298	  0.275922	  0.046724	  0.137284	  0.210389	  0.896404	  0.065593	
1.521	  0.092269	  0.095014	  0.528109	  0.161144	  0.218517	  0.070918	  0.023375	  0.026225	  0.008973	  0.006320	  0.273672	  0.046881	  0.137667	  0.211277	  0.906223	  0.065625	
1.5215	  0.091844	  0.094257	  0.525031	  0.160592	  0.216953	  0.070604	  0.023327	  0.026313	  0.009238	  0.006347	  0.271411	  0.047031	  0.138025	  0.212175	  0.916154	  0.065650	
